<?xml version="1.0" encoding="UTF-8"?>
<svg width="50px" height="50px" viewBox="0 0 50 50" version="1.1" xmlns="http://www.w3.org/2000/svg" xmlns:xlink="http://www.w3.org/1999/xlink">
    <!-- Generator: Sketch 51.3 (57544) - http://www.bohemiancoding.com/sketch -->
    <title>digital</title>
    <desc>Created with Sketch.</desc>
    <defs></defs>
    <g id="Page-1" stroke="none" stroke-width="1" fill="none" fill-rule="evenodd">
        <g id="Desktop-HD" transform="translate(-250.000000, -2672.000000)" fill="#000000" fill-rule="nonzero">
            <g id="digital" transform="translate(250.000000, 2672.000000)">
                <path d="M49.0234375,39.2578125 L40.234375,39.2578125 C39.6950195,39.2578125 39.2578125,39.6950195 39.2578125,40.234375 L39.2578125,43.6523437 L30.859375,43.6523437 C24.6491211,43.6523437 18.9741211,41.3203125 14.6609375,37.4875 C14.6609375,37.4875 24.6785156,33.4746094 24.7177734,33.4588867 C24.8382812,33.4106445 24.9508789,33.3355469 25.0426758,33.24375 C25.0426758,33.24375 48.855957,9.43046875 48.855957,9.43046875 C50.3790039,7.90742188 50.3789062,5.42919922 48.855957,3.90625 L46.09375,1.14404297 C44.5707031,-0.37890625 42.0925781,-0.37890625 40.5694336,1.14404297 C40.5694336,1.14404297 16.7646484,24.9488281 16.7561523,24.9573242 C16.6626953,25.0507812 16.5876953,25.1648437 16.5383789,25.2892578 L12.5391602,35.3567383 C8.74863281,31.0536133 6.34765625,25.4102539 6.34765625,19.2382812 C6.34765625,19.0863281 6.34765625,10.7421875 6.34765625,10.7421875 L9.765625,10.7421875 C10.3049805,10.7421875 10.7421875,10.3049805 10.7421875,9.765625 L10.7421875,0.9765625 C10.7421875,0.437207031 10.3049805,0 9.765625,0 L0.9765625,0 C0.437207031,0 0,0.437207031 0,0.9765625 L0,9.765625 C0,10.3049805 0.437207031,10.7421875 0.9765625,10.7421875 L4.39453125,10.7421875 L4.39453125,39.2578125 L2.9296875,39.2578125 C1.31425781,39.2578125 0,40.5720703 0,42.1875 L0,47.0703125 C0,48.6857422 1.31425781,50 2.9296875,50 L7.8125,50 C9.42792969,50 10.7421875,48.6857422 10.7421875,47.0703125 L10.7421875,45.6054687 L39.2578125,45.6054687 L39.2578125,49.0234375 C39.2578125,49.562793 39.6950195,50 40.234375,50 L49.0234375,50 C49.562793,50 50,49.562793 50,49.0234375 L50,40.234375 C50,39.6950195 49.562793,39.2578125 49.0234375,39.2578125 Z M24.3520508,31.172168 L22.2804687,29.1005859 L38.4978516,12.8832031 L40.5694336,14.9547852 L24.3520508,31.172168 Z M44.7125977,2.52519531 L47.4748047,5.28740234 C48.2363281,6.04882812 48.2363281,7.28798828 47.4748047,8.04951172 L41.9504883,2.52519531 C42.7121094,1.76367188 43.9511719,1.76367188 44.7125977,2.52519531 Z M37.8077148,6.66806641 C37.9922852,6.85263672 38.2373047,6.95410156 38.4980469,6.95410156 C38.7587891,6.95410156 39.0039062,6.85253906 39.1884766,6.66796875 C39.5693359,6.28808594 39.5693359,5.66806641 39.1885742,5.28720703 L40.5694336,3.90625 L46.09375,9.43056641 L44.712793,10.8115234 C44.5282227,10.6269531 44.2831055,10.5253906 44.0224609,10.5253906 C43.7607422,10.5253906 43.515625,10.6269531 43.3310547,10.8115234 C42.9511719,11.1923828 42.9511719,11.8115234 43.3310547,12.1923828 L43.331543,12.1928711 L41.9505859,13.5738281 L36.4262695,8.04951172 L37.8077148,6.66806641 Z M35.0452148,9.43056641 L37.1167969,11.5021484 L20.8994141,27.7194336 L18.827832,25.6478516 L35.0452148,9.43056641 Z M17.8084961,27.3908203 L22.640918,32.2232422 L19.7816406,33.4467773 L16.646875,30.3327148 L17.8084961,27.3908203 Z M15.8615234,32.3055664 L17.7931641,34.2244141 L14.6183594,35.4170898 L15.8615234,32.3055664 Z M1.953125,8.7890625 L1.953125,1.953125 L8.7890625,1.953125 L8.7890625,8.7890625 L1.953125,8.7890625 Z M8.7890625,47.0703125 C8.7890625,47.6087891 8.35097656,48.046875 7.8125,48.046875 L2.9296875,48.046875 C2.39121094,48.046875 1.953125,47.6087891 1.953125,47.0703125 L1.953125,42.1875 C1.953125,41.6490234 2.39121094,41.2109375 2.9296875,41.2109375 L7.8125,41.2109375 C8.35097656,41.2109375 8.7890625,41.6490234 8.7890625,42.1875 L8.7890625,47.0703125 Z M10.7421875,43.6523437 L10.7421875,42.1875 C10.7421875,40.5720703 9.42792969,39.2578125 7.8125,39.2578125 L6.34765625,39.2578125 L6.34765625,28.9879883 C7.65644531,32.2801758 9.634375,35.3021484 12.2149414,37.8827148 C14.7316406,40.3994141 17.6678711,42.3436523 20.8654297,43.6523437 L10.7421875,43.6523437 Z M48.046875,48.046875 L41.2109375,48.046875 L41.2109375,41.2109375 L48.046875,41.2109375 L48.046875,48.046875 Z" id="Shape"></path>
                <path d="M41.8696078,8.13039216 C41.6843137,7.94509804 41.4382353,7.84313725 41.1764706,7.84313725 C40.9147059,7.84313725 40.6686275,7.94509804 40.4833333,8.13039216 C40.2980392,8.31470588 40.1960784,8.56176471 40.1960784,8.82352941 C40.1960784,9.08529412 40.2980392,9.33137255 40.4833333,9.51666667 C40.6686275,9.70196078 40.9147059,9.80392157 41.1764706,9.80392157 C41.4382353,9.80392157 41.6843137,9.70196078 41.8696078,9.51666667 C42.054902,9.33137255 42.1568627,9.08529412 42.1568627,8.82352941 C42.1568627,8.56176471 42.054902,8.31470588 41.8696078,8.13039216 Z" id="Shape"></path>
            </g>
        </g>
    </g>
</svg>