<?xml version="1.0" encoding="UTF-8"?>
<svg width="55px" height="50px" viewBox="0 0 55 50" version="1.1" xmlns="http://www.w3.org/2000/svg" xmlns:xlink="http://www.w3.org/1999/xlink">
    <!-- Generator: Sketch 51.3 (57544) - http://www.bohemiancoding.com/sketch -->
    <title>coding</title>
    <desc>Created with Sketch.</desc>
    <defs></defs>
    <g id="Page-1" stroke="none" stroke-width="1" fill="none" fill-rule="evenodd">
        <g id="Desktop-HD" transform="translate(-970.000000, -2672.000000)" fill="#000000" fill-rule="nonzero">
            <g id="coding" transform="translate(970.000000, 2672.000000)">
                <path d="M19.5791809,21.9627934 C19.3310957,21.5450704 18.7924468,21.4080986 18.3760851,21.6570423 L8.15205319,27.7649061 C7.88629787,27.9235915 7.72340426,28.2109155 7.72340426,28.5211268 C7.72340426,28.831338 7.88629787,29.118662 8.15193617,29.2773474 L18.3759681,35.3852113 C18.5167447,35.4693662 18.6714468,35.5093897 18.8242766,35.5093897 C19.123383,35.5093897 19.415,35.3558685 19.5790638,35.0794601 C19.8271489,34.6617371 19.6905851,34.1214789 19.2742234,33.87277 L10.3161277,28.5211268 L19.2742234,23.1694836 C19.6907021,22.9207746 19.827266,22.3805164 19.5791809,21.9627934 Z" id="Shape"></path>
                <path d="M35.4209362,35.0794601 C35.585117,35.3559859 35.876617,35.5093897 36.1757234,35.5093897 C36.3285532,35.5093897 36.4832553,35.4693662 36.6240319,35.3852113 L46.8480638,29.2773474 C47.1138191,29.1185446 47.2765957,28.831338 47.2765957,28.5211268 C47.2765957,28.2109155 47.1137021,27.9235915 46.8480638,27.7649061 L36.6240319,21.6570423 C36.2076702,21.408216 35.6687872,21.5450704 35.4209362,21.9627934 C35.1728511,22.3805164 35.3094149,22.9207746 35.7257766,23.1694836 L44.6838723,28.5211268 L35.7257766,33.87277 C35.3092979,34.1214789 35.172734,34.6617371 35.4209362,35.0794601 Z" id="Shape"></path>
                <path d="M30.8608511,21.9225352 L22.681883,34.1382629 C22.4116809,34.541784 22.5187553,35.0887324 22.9211915,35.3598592 C23.0714468,35.4610329 23.2414787,35.5093897 23.4097553,35.5093897 C23.6923617,35.5093897 23.9698191,35.3726526 24.1391489,35.1197183 L32.318117,22.9039906 C32.5883191,22.5004695 32.4812447,21.9535211 32.0788085,21.6823944 C31.6761383,21.411385 31.1309362,21.5190141 30.8608511,21.9225352 Z" id="Shape"></path>
                <path d="M54.1223404,0.058685446 L0.877659574,0.058685446 C0.392840426,0.058685446 0,0.452816901 0,0.938967136 L0,49.0610329 C0,49.5471831 0.392840426,49.9413146 0.877659574,49.9413146 L54.1223404,49.9413146 C54.6071596,49.9413146 55,49.5471831 55,49.0610329 L55,39.6713615 C55,39.1852113 54.6071596,38.7910798 54.1223404,38.7910798 C53.6375213,38.7910798 53.2446809,39.1852113 53.2446809,39.6713615 L53.2446809,48.1807512 L1.75531915,48.1807512 L1.75531915,8.86150235 L53.2446809,8.86150235 L53.2446809,36.1502347 C53.2446809,36.636385 53.6375213,37.0305164 54.1223404,37.0305164 C54.6071596,37.0305164 55,36.636385 55,36.1502347 L55,0.938967136 C55,0.452816901 54.6071596,0.058685446 54.1223404,0.058685446 Z M1.75531915,1.81924883 L34.2287234,1.81924883 L34.2287234,7.10093897 L1.75531915,7.10093897 L1.75531915,1.81924883 Z M35.9840426,7.10093897 L35.9840426,1.81924883 L53.2446809,1.81924883 L53.2446809,7.10093897 L35.9840426,7.10093897 Z" id="Shape"></path>
                <path d="M44.643617,3.52112676 C44.1274362,3.52112676 43.7074468,3.94237089 43.7074468,4.4600939 C43.7074468,4.9778169 44.1274362,5.39906103 44.643617,5.39906103 C45.1597979,5.39906103 45.5797872,4.9778169 45.5797872,4.4600939 C45.5797872,3.94237089 45.1597979,3.52112676 44.643617,3.52112676 Z" id="Shape"></path>
                <path d="M39.8457447,3.52112676 C39.3295638,3.52112676 38.9095745,3.94237089 38.9095745,4.4600939 C38.9095745,4.9778169 39.3295638,5.39906103 39.8457447,5.39906103 C40.3619255,5.39906103 40.7819149,4.9778169 40.7819149,4.4600939 C40.7819149,3.94237089 40.3619255,3.52112676 39.8457447,3.52112676 Z" id="Shape"></path>
                <path d="M49.4414894,3.52112676 C48.9253085,3.52112676 48.5053191,3.94237089 48.5053191,4.4600939 C48.5053191,4.9778169 48.9253085,5.39906103 49.4414894,5.39906103 C49.9576702,5.39906103 50.3776596,4.9778169 50.3776596,4.4600939 C50.3776596,3.94237089 49.9576702,3.52112676 49.4414894,3.52112676 Z" id="Shape"></path>
            </g>
        </g>
    </g>
</svg>