<svg width="50" height="50" viewBox="0 0 50 50" fill="none" xmlns="http://www.w3.org/2000/svg">
<path d="M28.9062 36.3281C29.4453 36.3281 29.8828 35.8906 29.8828 35.3516C29.8828 34.8125 29.4453 34.375 28.9062 34.375C28.3672 34.375 27.9297 34.8125 27.9297 35.3516C27.9297 35.8906 28.3672 36.3281 28.9062 36.3281Z" fill="black"/>
<path d="M47.0703 0H2.92969C1.31416 0 0 1.31416 0 2.92969V37.3047C0 38.9202 1.31416 40.2344 2.92969 40.2344H20.1172V41.2109C20.1172 42.8265 18.803 44.1406 17.1875 44.1406C14.4897 44.1406 12.3047 46.3257 12.3047 49.0234C12.3047 49.5628 12.7419 50 13.2812 50H36.7188C37.2581 50 37.6953 49.5628 37.6953 49.0234C37.6953 46.3261 35.5103 44.1406 32.8125 44.1406C32.0305 44.1406 31.295 43.8358 30.7415 43.2823C30.1876 42.7284 29.8828 41.993 29.8828 41.2109V40.2344H47.0703C48.6858 40.2344 50 38.9202 50 37.3047V2.92969C50 1.31416 48.6858 0 47.0703 0ZM32.8125 46.0938C34.1129 46.0938 35.1833 46.9345 35.5759 48.0469H14.4241C14.8163 46.9353 15.8867 46.0938 17.1875 46.0938H32.8125ZM28.9066 44.1406H21.0911C21.7056 43.3239 22.0703 42.3092 22.0703 41.2109V40.2344H27.9297V41.2109C27.9297 42.2817 28.273 43.2999 28.9066 44.1406ZM48.0469 37.3047C48.0469 37.8433 47.6089 38.2812 47.0703 38.2812H2.92969C2.39105 38.2812 1.95312 37.8433 1.95312 37.3047V32.4219H48.0469V37.3047ZM6.15234 30.4688V5.85938H43.8477V30.4688H6.15234ZM48.0469 30.4688H45.8008V4.88281C45.8008 4.34341 45.3636 3.90625 44.8242 3.90625H5.17578C4.63638 3.90625 4.19922 4.34341 4.19922 4.88281V30.4688H1.95312V2.92969C1.95312 2.39105 2.39105 1.95312 2.92969 1.95312H47.0703C47.6089 1.95312 48.0469 2.39105 48.0469 2.92969V30.4688Z" fill="black"/>
<path d="M17.1875 10.3516H9.375C8.8356 10.3516 8.39844 10.7887 8.39844 11.3281V21.0938C8.39844 21.6331 8.8356 22.0703 9.375 22.0703H17.1875C17.7269 22.0703 18.1641 21.6331 18.1641 21.0938V11.3281C18.1641 10.7887 17.7269 10.3516 17.1875 10.3516ZM16.2109 20.1172H10.3516V12.3047H16.2109V20.1172Z" fill="black"/>
<path d="M28.9062 10.3516H21.0938C20.5544 10.3516 20.1172 10.7887 20.1172 11.3281V21.0938C20.1172 21.6331 20.5544 22.0703 21.0938 22.0703H28.9062C29.4456 22.0703 29.8828 21.6331 29.8828 21.0938V11.3281C29.8828 10.7887 29.4456 10.3516 28.9062 10.3516ZM27.9297 20.1172H22.0703V12.3047H27.9297V20.1172Z" fill="black"/>
<path d="M40.625 10.3516H32.8125C32.2731 10.3516 31.8359 10.7887 31.8359 11.3281V21.0938C31.8359 21.6331 32.2731 22.0703 32.8125 22.0703H40.625C41.1644 22.0703 41.6016 21.6331 41.6016 21.0938V11.3281C41.6016 10.7887 41.1644 10.3516 40.625 10.3516ZM39.6484 20.1172H33.7891V12.3047H39.6484V20.1172Z" fill="black"/>
<path d="M17.1875 24.0234H9.375C8.8356 24.0234 8.39844 24.4606 8.39844 25C8.39844 25.5394 8.8356 25.9766 9.375 25.9766H17.1875C17.7269 25.9766 18.1641 25.5394 18.1641 25C18.1641 24.4606 17.7269 24.0234 17.1875 24.0234Z" fill="black"/>
<path d="M28.9062 24.0234H21.0938C20.5544 24.0234 20.1172 24.4606 20.1172 25C20.1172 25.5394 20.5544 25.9766 21.0938 25.9766H28.9062C29.4456 25.9766 29.8828 25.5394 29.8828 25C29.8828 24.4606 29.4456 24.0234 28.9062 24.0234Z" fill="black"/>
<path d="M40.625 24.0234H32.8125C32.2731 24.0234 31.8359 24.4606 31.8359 25C31.8359 25.5394 32.2731 25.9766 32.8125 25.9766H40.625C41.1644 25.9766 41.6016 25.5394 41.6016 25C41.6016 24.4606 41.1644 24.0234 40.625 24.0234Z" fill="black"/>
<path d="M21.0938 36.3281H25C25.5394 36.3281 25.9766 35.891 25.9766 35.3516C25.9766 34.8122 25.5394 34.375 25 34.375H21.0938C20.5544 34.375 20.1172 34.8122 20.1172 35.3516C20.1172 35.891 20.5544 36.3281 21.0938 36.3281Z" fill="black"/>
</svg>
