<?xml version="1.0" encoding="UTF-8"?>
<svg width="50px" height="50px" viewBox="0 0 50 50" version="1.1" xmlns="http://www.w3.org/2000/svg" xmlns:xlink="http://www.w3.org/1999/xlink">
    <!-- Generator: Sketch 51.3 (57544) - http://www.bohemiancoding.com/sketch -->
    <title>design-tool</title>
    <desc>Created with Sketch.</desc>
    <defs></defs>
    <g id="Page-1" stroke="none" stroke-width="1" fill="none" fill-rule="evenodd">
        <g id="Desktop-HD" transform="translate(-490.000000, -2672.000000)" fill="#000000" fill-rule="nonzero">
            <g id="design-tool" transform="translate(490.000000, 2672.000000)">
                <path d="M34.7305298,22.8976304 C35.112381,22.517285 35.112381,21.8993665 34.7305298,21.5194018 C34.3494415,21.1382949 33.7314605,21.1382949 33.3496094,21.5194018 C32.9685211,21.8993665 32.9685211,22.517285 33.3496094,22.8976304 C33.7314605,23.2787372 34.3494415,23.2787372 34.7305298,22.8976304 Z" id="Shape"></path>
                <path d="M0.9765625,49.9508864 L49.0234375,49.9508864 C49.4182587,49.9508864 49.7745514,49.713694 49.9256134,49.3493391 C50.0766754,48.9849842 49.9931336,48.5658047 49.7138977,48.2871132 L1.66702266,0.334277583 C1.38778691,0.0552052632 0.967788672,-0.0277929825 0.602722168,0.122974561 C0.238037109,0.273742105 0,0.628959552 0,1.02339181 L0,48.9762275 C0,49.5145742 0.437164258,49.9508864 0.9765625,49.9508864 Z M1.953125,3.37627924 L9.80834961,11.2161915 L7.73620605,13.2831536 C7.35473633,13.6638797 7.35473633,14.2810368 7.73620605,14.661763 C8.11691289,15.0421083 8.73565674,15.0428698 9.11712646,14.661763 L11.18927,12.5944201 L15.3324127,16.7298673 L13.2606506,18.7968293 C12.8791809,19.1775555 12.8791809,19.7947125 13.2602691,20.1754386 C13.6413574,20.555784 14.2601014,20.5565454 14.6415711,20.1754386 L16.7137146,18.1080957 L20.8564758,22.2431622 L18.7850952,24.3108858 C18.4036255,24.6912311 18.4036255,25.3083881 18.7850952,25.6891142 C19.1665649,26.0698404 19.7845459,26.0698404 20.1660156,25.6891142 L22.2377777,23.6213907 L26.3809204,27.7568378 L24.3095398,29.8245614 C23.9280701,30.2049068 23.9280701,30.8220638 24.3095398,31.20279 C24.6910096,31.5835161 25.3089904,31.5835161 25.6904602,31.20279 L27.7622223,29.1354472 L31.905365,33.2701327 L29.8339844,35.338237 C29.4525146,35.7189632 29.4525146,36.3361203 29.8339844,36.7168464 C30.2154541,37.0971918 30.8338165,37.0971918 31.2152862,36.7164657 L33.2862854,34.6487421 L37.4294281,38.7838085 L35.3580475,40.8519128 C34.9769592,41.2326389 34.9769592,41.8497959 35.3584289,42.2301413 C35.7395172,42.6108674 36.3582611,42.6108674 36.7397309,42.2301413 L38.81073,40.162037 L46.6655731,48.0015686 L1.953125,48.0015686 L1.953125,3.37627924 Z" id="Shape"></path>
                <path d="M10.0654602,20.3136422 C9.78622441,20.0349507 9.36622617,19.9515716 9.00115967,20.1023392 C8.63647461,20.2531067 8.3984375,20.6087049 8.3984375,21.0027564 L8.3984375,40.5941612 C8.3984375,41.1325079 8.83560176,41.5688201 9.375,41.5688201 L29.0046691,41.5688201 C29.3998719,41.5688201 29.7557831,41.3316277 29.9072266,40.9672728 C30.0582886,40.6032986 29.9743652,40.1837384 29.6955108,39.9050469 L10.0654602,20.3136422 Z M10.3515625,39.619883 L10.3515625,23.3560246 L26.6471863,39.619883 L10.3515625,39.619883 Z" id="Shape"></path>
                <path d="M30.5877686,20.1411733 C30.9692383,20.5218994 31.5872192,20.5218994 31.9690704,20.1411733 C32.3501587,19.7608279 32.3501587,19.1436708 31.9690704,18.7629446 L27.8251648,14.6274976 C27.4440766,14.2467714 26.8257141,14.2467714 26.4442443,14.6274976 C26.0627746,15.007843 26.0627746,15.625 26.4442443,16.0057261 L30.5877686,20.1411733 Z" id="Shape"></path>
                <path d="M14.8239136,9.98225819 L42.2363281,37.3408565 C43.3807373,38.4837963 45.2346802,38.4837963 46.3798523,37.3408565 L49.1416932,34.5847801 C50.283432,33.4452669 50.283432,31.5899884 49.1416932,30.4489522 L21.7296601,3.0903539 C21.622467,2.98336988 21.4916229,2.90265595 21.3478088,2.8550652 L13.0615234,0.0986080897 C12.7109527,-0.017894152 12.3237609,0.0730994152 12.0624542,0.334277583 C11.800766,0.595074951 11.7095947,0.981131189 11.8263244,1.33139922 L14.5881652,9.60153207 C14.6362305,9.74506579 14.7167206,9.87527407 14.8239136,9.98225819 Z M47.7600098,31.8271808 C48.141098,32.2075262 48.141098,32.8265868 47.7603912,33.2061708 L44.9989318,35.9626279 C44.6174621,36.343354 43.9990997,36.3437348 43.6172485,35.9626279 L41.5012359,33.8507402 L45.6443787,29.715293 L47.7600098,31.8271808 Z M44.2634582,28.3370644 L40.1199341,32.4725116 L38.7390137,31.0939023 L42.8825379,26.9592166 L44.2634582,28.3370644 Z M21.6854096,5.80302749 L41.5012359,25.5802266 L37.3580933,29.7156737 L17.5418854,9.93809396 L21.6854096,5.80302749 Z M20.2003479,4.52797573 L16.2643433,8.4559271 L14.2967225,2.56419045 L20.2003479,4.52797573 Z" id="Shape"></path>
            </g>
        </g>
    </g>
</svg>