<?xml version="1.0" encoding="UTF-8"?>
<svg width="50px" height="50px" viewBox="0 0 50 50" version="1.1" xmlns="http://www.w3.org/2000/svg" xmlns:xlink="http://www.w3.org/1999/xlink">
    <!-- Generator: Sketch 51.3 (57544) - http://www.bohemiancoding.com/sketch -->
    <title>paint-palette</title>
    <desc>Created with Sketch.</desc>
    <defs></defs>
    <g id="Page-1" stroke="none" stroke-width="1" fill="none" fill-rule="evenodd">
        <g id="Desktop-HD" transform="translate(-730.000000, -2672.000000)" fill="#000000" fill-rule="nonzero">
            <g id="paint-palette" transform="translate(730.000000, 2672.000000)">
                <path d="M11.6714478,21.6252437 C14.4329071,21.6252437 16.6713715,19.3907621 16.6713715,16.6346857 C16.6713715,13.8786093 14.4329071,11.6445084 11.6714478,11.6445084 C8.90998838,11.6445084 6.67114258,13.8786093 6.67114258,16.6346857 C6.67419434,19.3896199 8.91113281,21.6221979 11.6714478,21.6252437 Z M11.6714478,13.3079008 C13.5124207,13.3079008 15.0047303,14.7973014 15.0047303,16.6346857 C15.0047303,18.47207 13.5124207,19.9618513 11.6714478,19.9618513 C9.8304748,19.9618513 8.33778379,18.47207 8.33778379,16.6346857 C8.33778379,14.7973014 9.8304748,13.3079008 11.6714478,13.3079008 Z" id="Shape"></path>
                <path d="M22.5048065,15.8031798 C25.2658844,15.8031798 27.5047303,13.5690789 27.5047303,10.8130025 C27.5047303,8.05692612 25.2658844,5.82244454 22.5048065,5.82244454 C19.7433472,5.82244454 17.5045014,8.05692612 17.5045014,10.8130025 C17.5075531,13.5679367 19.7444916,15.8005147 22.5048065,15.8031798 Z M22.5048065,7.48621774 C24.3453979,7.48621774 25.838089,8.97561832 25.838089,10.8130025 C25.838089,12.6503868 24.3453979,14.1397874 22.5048065,14.1397874 C20.6638336,14.1397874 19.1711426,12.6503868 19.1711426,10.8130025 C19.1711426,8.97561832 20.6638336,7.48621774 22.5048065,7.48621774 Z" id="Shape"></path>
                <path d="M21.7781066,33.7955349 C21.4702606,33.4540235 20.943451,33.4262305 20.6012726,33.7330957 C20.141983,34.1438992 19.9947357,34.268016 19.7196961,34.4983553 L19.2195893,34.9141082 C18.9533233,35.1398788 18.8564301,35.5072795 18.9769745,35.8347039 C19.0975189,36.1617477 19.4095611,36.379523 19.7589874,36.379523 C19.9565888,36.3802845 20.1477051,36.3098501 20.2980041,36.1815454 L20.7878113,35.7657925 C21.0762023,35.5247929 21.2322235,35.3949653 21.7121124,34.9632218 C22.0508575,34.6574988 22.0802307,34.1370462 21.7781066,33.7955349 Z" id="Shape"></path>
                <path d="M16.4211273,37.2879356 C12.2631073,40.6744943 8.44230654,43.4084887 8.40377812,43.435901 C8.15582275,43.6064663 8.01963809,43.897341 8.04710391,44.1965917 C8.07456973,44.4962232 8.26187129,44.7574014 8.53691104,44.8799951 C8.81195068,45.0025889 9.13200381,44.9675622 9.37385557,44.7882402 C9.41200254,44.7608279 13.2736206,41.9978984 17.4747467,38.5763128 C17.8165436,38.2820115 17.861557,37.7695541 17.5762177,37.4204283 C17.2908783,37.0713023 16.7785645,37.0122899 16.4211273,37.2879356 Z" id="Shape"></path>
                <path d="M48.7422943,0.0936586745 C48.0091095,-0.156859162 47.1981049,0.107364717 46.7544556,0.741654483 C44.4629669,4.00600019 41.657257,4.96428791 38.9438629,5.89097524 C38.1671905,6.15596062 37.4080658,6.4182809 36.6744995,6.72248109 C27.6741027,0.395574464 15.4602051,1.24154786 7.42111211,8.74870556 C2.69737246,13.1605598 0.0129699219,19.3264193 0.00457763672,25.7835343 C-0.000381469727,30.2151864 1.27258301,34.554322 3.67126465,38.2835343 C1.49230957,41.367416 0.181198145,44.16423 0.0736236328,46.2144402 C-0.0282287109,47.1594024 0.259780859,48.1047454 0.871276855,48.8326938 C1.61743164,49.5850086 2.6550293,49.9756335 3.71284482,49.9032955 C6.08291621,49.9032955 9.32312012,48.589029 12.7662658,46.5346308 C12.9970551,46.6545596 13.2270812,46.7782955 13.4597778,46.8856603 C14.4428253,47.3493848 15.517044,47.5892422 16.6046143,47.5884807 C20.7923889,47.5724903 24.1767883,44.176794 24.1714478,39.9975634 C24.1630555,38.6673062 24.6143341,37.3751218 25.4486084,36.3380239 C25.4714966,36.315561 25.4920959,36.2911945 25.5111694,36.265686 C25.5252838,36.2481725 25.5428314,36.2306591 25.5569458,36.2131457 C25.7171631,36.0467684 25.8689881,35.880391 26.0246277,35.7143945 C26.0662079,35.6751797 26.102066,35.6359649 26.1463165,35.5971308 C27.2262573,34.6289443 28.6281586,34.0959278 30.0796509,34.1008772 L39.0712738,34.1008772 C43.0843354,34.1229593 46.4107514,31.0021473 46.6362,27.0030001 C46.7815399,24.4140625 46.4832306,21.819414 45.7546234,19.3302266 C48.2330322,16.0034417 49.6421814,10.1276955 49.9439239,1.81720575 C49.974823,1.03900156 49.4838715,0.335038986 48.7422943,0.0936586745 Z M37.0044708,22.9292306 C37.3115539,23.2707419 37.2837066,23.7957633 36.9422912,24.1026286 L36.6863251,24.3329678 C36.3418579,24.6417367 35.8119965,24.6143245 35.5014801,24.271671 L29.0962219,17.1928302 C28.7891388,16.8516996 28.8166046,16.3266783 29.15802,16.0194323 L29.4155121,15.789093 C29.7603607,15.4814663 30.2894592,15.5088786 30.600357,15.8503899 L37.0044708,22.9292306 Z M31.5231323,25.3677815 L27.5897979,21.0179855 C27.281952,20.6764742 27.3101807,20.1506914 27.6519775,19.8434454 L27.9079438,19.6138675 C28.2524109,19.3054794 28.7822724,19.3328917 29.0927887,19.6755452 L33.0272675,24.0245797 C33.3343506,24.3653295 33.3072662,24.8895895 32.9669952,25.1972162 L32.7079773,25.4275555 C32.3635102,25.7363244 31.8344116,25.7092928 31.5231323,25.3677815 Z M38.7153625,7.73559337 C37.9470825,12.9953247 34.1480255,13.8359679 32.6602936,13.9608461 C32.7770233,12.3854015 33.4949493,10.9150371 34.6664429,9.8524306 C35.8612061,8.88310185 37.2375488,8.16162583 38.7153625,7.73064386 L38.7153625,7.73559337 Z M32.768631,15.7708181 C32.7579498,15.7190394 32.7522277,15.6684027 32.7430725,15.6170048 C34.552002,15.4837506 36.2678527,14.7649397 37.6304627,13.5698404 C39.3722534,11.8687561 40.3850556,9.55965214 40.4563904,7.12833519 C41.545868,6.7594115 42.6029205,6.30101735 43.6172674,5.75848255 C43.6306,15.4978374 36.5505219,17.5689875 34.7312928,17.9356268 L32.768631,15.7708181 Z M1.67121885,25.7835343 C1.68075566,19.7867173 4.17518613,14.0609771 8.56285098,9.96436404 C15.7794952,3.22893821 26.6574859,2.24438051 34.9704742,7.5741655 C34.4665527,7.87379688 33.9920044,8.2202577 33.5536957,8.60974055 C31.9839478,10.0256609 31.0527802,12.0138128 30.9703827,14.1237969 C30.0739288,13.7354562 29.0328979,13.9029757 28.3039093,14.5521138 L28.0464172,14.7816916 C27.1595001,15.5770285 26.9584656,16.8863456 27.5661469,17.9097374 C27.2830963,18.01596 27.0217896,18.1731999 26.795578,18.3730811 L26.5396118,18.6034205 C26.1814117,18.9239918 25.9246826,19.3416483 25.8003234,19.8053728 C21.5465546,21.7158565 17.5956727,24.2377864 14.0739441,27.290829 C13.5887146,24.8697916 11.4028931,23.1668037 8.93211367,23.2848288 C6.46133418,23.4024732 4.44831846,25.3061038 4.19692988,27.762168 C3.94554141,30.2182322 5.53131104,32.488502 7.92694092,33.1026133 C6.75468447,34.3685277 5.68466191,35.623401 4.73976133,36.8455318 C2.72827148,33.5050408 1.6674042,29.680647 1.67121885,25.7835343 Z M9.38644414,31.5873234 C9.31472773,31.5930342 9.24530029,31.6055982 9.17129512,31.6055982 C7.33032227,31.6055982 5.8380127,30.1161977 5.8380127,28.2788134 C5.8380127,26.441429 7.33032227,24.9520285 9.17129512,24.9520285 C11.0122681,24.9520285 12.5045776,26.441429 12.5045776,28.2788134 C12.5003814,28.4135904 12.4866485,28.5483674 12.4637604,28.6812408 C12.3806,28.7554825 12.2970581,28.8236325 12.2138977,28.8982548 C11.2247467,29.7849659 10.2828979,30.6850024 9.38644414,31.5873234 Z M2.10800176,47.7224963 C1.80282598,47.3181652 1.66969297,46.8102766 1.73797607,46.3084795 C1.92642207,42.73803 6.69136045,36.0909327 13.3270264,30.1424677 C17.0787812,26.6519707 21.3424683,23.7531219 25.970459,21.546814 C26.0700226,21.7577364 26.1981964,21.9538103 26.3523102,22.1289443 L30.2864074,26.479121 C30.4203033,26.6245584 30.5709839,26.7536246 30.7353974,26.8640351 C29.0710449,29.6406707 27.0935059,32.2178058 24.8420715,34.5455653 C24.6524811,34.7245066 24.4735718,34.9148696 24.307251,35.1155123 C23.223877,36.2375122 22.0714569,37.3560856 20.8530426,38.4487695 C12.2772217,46.1337262 3.88374326,49.6809515 2.10800176,47.7190698 L2.10800176,47.7224963 Z M16.6080475,45.9307992 C15.8641815,45.9288956 15.1283264,45.7815546 14.4412994,45.4967714 C17.0913696,43.7511422 19.6067811,41.8102004 21.9661713,39.6899366 C22.1679688,39.5083303 22.3587036,39.3229167 22.5578309,39.1409296 C22.5242615,39.425332 22.5063324,39.7112573 22.5048065,39.9975634 C22.5124359,43.2596248 19.8730469,45.9125244 16.6046143,45.9277534 L16.6080475,45.9307992 Z M44.972229,26.9139102 C44.7929383,30.0297728 42.1981812,32.4584248 39.0712738,32.4374848 L30.0796509,32.4374848 C29.649353,32.4386269 29.2201996,32.4763188 28.7963867,32.5494182 C30.1582336,30.9035392 31.3713074,29.1403966 32.4211121,27.2805495 C32.9425812,27.2291515 33.4339142,27.0140411 33.8245392,26.6660575 L34.0847016,26.4349567 C34.3097687,26.2305068 34.4955444,25.9872228 34.6328735,25.7161458 C35.5880737,26.427723 36.9132996,26.3675682 37.7994537,25.5722314 L38.0554199,25.341892 C38.7966156,24.6809515 39.0716553,23.6423306 38.7546539,22.7023178 C38.912201,22.7114553 39.0705108,22.7221156 39.2272949,22.7221156 C41.1354064,22.7274458 42.9805756,22.0421388 44.4213867,20.7933571 C44.6987152,21.9484801 44.8783875,23.1249239 44.9588775,24.3097436 C45.0157166,25.1766569 45.0202941,26.0462354 44.972229,26.9139102 Z M43.3887481,19.4844207 C41.7163849,20.9544043 39.3901825,21.4333577 37.2711182,20.7442435 L35.9786987,19.3153783 C39.0289307,18.3879294 45.7546234,15.1376706 45.2545166,4.69549522 C46.3615418,3.85180614 47.328949,2.83983616 48.1212616,1.69651559 C48.1372833,1.67405273 48.1506348,1.65082846 48.2120514,1.67062622 C48.2738495,1.69080468 48.2772827,1.72963879 48.2761383,1.75400526 C47.9480743,10.7814023 46.2589264,16.9118543 43.3887481,19.4844207 Z" id="Shape"></path>
            </g>
        </g>
    </g>
</svg>