<?xml version="1.0" encoding="UTF-8"?>
<svg width="26px" height="20px" viewBox="0 0 26 20" version="1.1" xmlns="http://www.w3.org/2000/svg" xmlns:xlink="http://www.w3.org/1999/xlink">
    <!-- Generator: Sketch 51.3 (57544) - http://www.bohemiancoding.com/sketch -->
    <title>external-link-symbol</title>
    <desc>Created with Sketch.</desc>
    <defs></defs>
    <g id="Page-1" stroke="none" stroke-width="1" fill="none" fill-rule="evenodd">
        <g id="Desktop-HD" transform="translate(-342.000000, -1415.000000)" fill="#656565" fill-rule="nonzero">
            <g id="work-row" transform="translate(250.000000, 1411.000000)">
                <g id="work-content">
                    <g id="external-link-symbol" transform="translate(92.000000, 4.000000)">
                        <path d="M20.1968295,11.7353892 L19.2573608,11.7353892 C19.1201471,11.7353892 19.0075589,11.7740604 18.9199561,11.8517647 C18.8316335,11.9290168 18.7876778,12.0280242 18.7876778,12.1486061 L18.7876778,16.2808211 C18.7876778,16.8490397 18.5578745,17.3353476 18.0980109,17.7400161 C17.6381473,18.1445943 17.08518,18.346725 16.4393145,18.346725 L4.22714654,18.346725 C3.58133248,18.346725 3.02841653,18.1445943 2.5684501,17.7400161 C2.10858649,17.3353928 1.87868038,16.8490849 1.87868038,16.2808211 L1.87868038,5.53695366 C1.87868038,4.96878032 2.10853508,4.48251766 2.5684501,4.07789429 C3.02841653,3.6732257 3.58133248,3.47100448 4.22714654,3.47100448 L14.5602742,3.47100448 C14.6974879,3.47100448 14.8100761,3.43215231 14.8980388,3.35476459 C14.9860015,3.27728641 15.0299572,3.17836943 15.0299572,3.05774228 L15.0299572,2.23117264 C15.0299572,2.11077164 14.9860015,2.01167374 14.8980388,1.93433125 C14.8100761,1.85685307 14.6974879,1.81818182 14.5602742,1.81818182 L4.22714654,1.81818182 C3.06280991,1.81818182 2.06709851,2.18191769 1.24011516,2.90934419 C0.413440266,3.63672547 0,4.51273098 0,5.53708934 L0,16.281002 C0,17.3053151 0.413440266,18.1814563 1.24016657,18.9086115 C2.06714992,19.6360832 3.06286132,20 4.22719795,20 L16.4393145,20 C17.6035997,20 18.5994139,19.6360832 19.4262945,18.9086115 C20.2532264,18.1814563 20.6666667,17.3053604 20.6666667,16.281002 L20.6666667,12.1489227 C20.6666667,12.0282051 20.6226596,11.9291525 20.534337,11.8517647 C20.4462714,11.7740604 20.3336833,11.7353892 20.1968295,11.7353892 Z" id="Shape"></path>
                        <path d="M25.7252159,0.249626785 C25.5421108,0.0831629058 25.3250374,0 25.0747044,0 L17.6746683,0 C17.4241835,0 17.2072619,0.0831629058 17.0243088,0.249626785 C16.8412037,0.415998619 16.7495246,0.613113575 16.7495246,0.840879608 C16.7495246,1.06864564 16.8412037,1.26580662 17.0243088,1.4322705 L19.5679857,3.74481598 L10.1445806,12.311976 C10.0480923,12.399557 10,12.5003466 10,12.6140225 C10,12.7281126 10.0482442,12.8288562 10.1445806,12.9164373 L11.792273,14.414198 C11.8886094,14.5017791 11.9994748,14.5454545 12.1247172,14.5454545 C12.2499597,14.5454545 12.3608757,14.5018251 12.4571615,14.414198 L21.8806172,5.84717608 L24.4244967,8.15972156 C24.6074499,8.32618544 24.8243208,8.40944039 25.0748563,8.40944039 C25.3253918,8.40944039 25.5422627,8.32618544 25.7254184,8.15972156 C25.9085234,7.99330371 26,7.79623477 26,7.56846874 L26,0.840879608 C25.9999494,0.612975507 25.908169,0.415998619 25.7252159,0.249626785 Z" id="Shape"></path>
                    </g>
                </g>
            </g>
        </g>
    </g>
</svg>