<svg width="50" height="50" viewBox="0 0 50 50" fill="none" xmlns="http://www.w3.org/2000/svg">
<path d="M12.3047 19.5312C12.8437 19.5312 13.2812 19.0937 13.2812 18.5547C13.2812 18.0157 12.8437 17.5781 12.3047 17.5781C11.7657 17.5781 11.3281 18.0157 11.3281 18.5547C11.3281 19.0937 11.7657 19.5312 12.3047 19.5312Z" fill="black"/>
<path d="M41.6016 5.85938H38.6719V2.92969C38.6719 1.31416 37.3577 0 35.7422 0H18.9728C18.1965 0 17.4469 0.312805 16.9014 0.858307L6.32706 11.4323C5.7888 11.9705 5.46875 12.7182 5.46875 13.504V40.625C5.46875 42.2405 6.78291 43.5547 8.39844 43.5547H11.3281V47.0703C11.3281 48.6858 12.6423 50 14.2578 50H41.6016C43.2171 50 44.5312 48.6858 44.5312 47.0703V8.78906C44.5312 7.17354 43.2171 5.85938 41.6016 5.85938ZM17.1875 3.33443V11.7188H8.8028L17.1875 3.33443ZM8.39844 41.6016C7.8598 41.6016 7.42188 41.1636 7.42188 40.625V13.6719H18.1641C18.7035 13.6719 19.1406 13.2347 19.1406 12.6953V1.95312H35.7422C36.2808 1.95312 36.7188 2.39105 36.7188 2.92969V40.625C36.7188 41.1636 36.2808 41.6016 35.7422 41.6016H8.39844ZM42.5781 47.0703C42.5781 47.6089 42.1402 48.0469 41.6016 48.0469H14.2578C13.7192 48.0469 13.2812 47.6089 13.2812 47.0703V43.5547H35.7422C37.3577 43.5547 38.6719 42.2405 38.6719 40.625V7.8125H41.6016C42.1402 7.8125 42.5781 8.25043 42.5781 8.78906V47.0703Z" fill="black"/>
<path d="M31.8359 5.85938H24.0234C23.484 5.85938 23.0469 6.29654 23.0469 6.83594V12.6953C23.0469 13.2347 23.484 13.6719 24.0234 13.6719H31.8359C32.3753 13.6719 32.8125 13.2347 32.8125 12.6953V6.83594C32.8125 6.29654 32.3753 5.85938 31.8359 5.85938ZM30.8594 11.7188H25V7.8125H30.8594V11.7188Z" fill="black"/>
<path d="M31.8359 17.5781H16.2109C15.6715 17.5781 15.2344 18.0153 15.2344 18.5547C15.2344 19.0941 15.6715 19.5312 16.2109 19.5312H31.8359C32.3753 19.5312 32.8125 19.0941 32.8125 18.5547C32.8125 18.0153 32.3753 17.5781 31.8359 17.5781Z" fill="black"/>
<path d="M31.8359 23.4375H12.3047C11.7653 23.4375 11.3281 23.8747 11.3281 24.4141C11.3281 24.9535 11.7653 25.3906 12.3047 25.3906H31.8359C32.3753 25.3906 32.8125 24.9535 32.8125 24.4141C32.8125 23.8747 32.3753 23.4375 31.8359 23.4375Z" fill="black"/>
<path d="M31.8359 29.2969H12.3047C11.7653 29.2969 11.3281 29.734 11.3281 30.2734C11.3281 30.8128 11.7653 31.25 12.3047 31.25H31.8359C32.3753 31.25 32.8125 30.8128 32.8125 30.2734C32.8125 29.734 32.3753 29.2969 31.8359 29.2969Z" fill="black"/>
<path d="M31.8359 35.1562H12.3047C11.7653 35.1562 11.3281 35.5934 11.3281 36.1328C11.3281 36.6722 11.7653 37.1094 12.3047 37.1094H31.8359C32.3753 37.1094 32.8125 36.6722 32.8125 36.1328C32.8125 35.5934 32.3753 35.1562 31.8359 35.1562Z" fill="black"/>
</svg>
