<?xml version="1.0" encoding="UTF-8"?>
<svg width="50px" height="50px" viewBox="0 0 50 50" version="1.1" xmlns="http://www.w3.org/2000/svg" xmlns:xlink="http://www.w3.org/1999/xlink">
    <!-- Generator: Sketch 51.3 (57544) - http://www.bohemiancoding.com/sketch -->
    <title>architecture</title>
    <desc>Created with Sketch.</desc>
    <defs></defs>
    <g id="Page-1" stroke="none" stroke-width="1" fill="none" fill-rule="evenodd">
        <g id="Desktop-HD" transform="translate(-249.000000, -3405.000000)" fill="#000000" fill-rule="nonzero">
            <g id="architecture" transform="translate(249.000000, 3405.000000)">
                <path d="M49.4758605,30.8914256 C49.1580963,30.7651561 48.7953186,30.8441223 48.5591889,31.0913208 L45.0000763,34.8324867 L45.0000763,12.6109451 L45.0042725,12.6109451 L48.400116,8.94416768 C48.7125396,8.60655856 48.6919403,8.07897289 48.3539581,7.76654154 C48.3539581,7.76654154 48.3535767,7.76616009 48.3531952,7.76577853 L47.1309662,6.62820778 L48.8292694,4.79481897 C49.1413116,4.4568285 49.1203309,3.92962428 48.7823486,3.61757439 L45.1156616,0.221647011 C44.7780609,-0.0907844308 44.2508697,-0.070565963 43.9384461,0.267424508 L38.0134582,6.66521123 L9.16671758,6.66521123 C9.16404727,4.36489195 7.30018613,2.50098491 4.99992373,2.49831453 L4.16679385,2.49831453 C1.86653135,2.50098491 0.00267029297,4.36489195 0,6.66521123 L0,42.4994545 C0,42.9595183 0.373077344,43.332605 0.833511328,43.332605 L13.4483338,43.332605 L11.6981506,45.4341735 C11.4040375,45.7881862 11.4521026,46.3134829 11.8057251,46.6076034 L15.6482696,49.807069 C16.0018921,50.1015709 16.5275574,50.0535044 16.822052,49.6998733 C16.822052,49.6998733 16.8224335,49.6994918 16.8224335,49.6994918 L21.0876465,44.5750825 C21.3821411,44.2203069 21.5717315,43.7896169 21.6342926,43.332605 L36.9041443,43.332605 L31.8958282,48.5920578 C31.578827,48.9254706 31.5921783,49.4530563 31.9255829,49.7700654 C32.0804596,49.9173164 32.2860718,49.9997159 32.5000763,49.9993345 L49.1664887,49.9993345 C49.6269227,49.9993345 50,49.6262478 50,49.166184 L50,31.6658283 C50,31.3247859 49.7924805,31.0180768 49.4758605,30.8914256 Z M46.6110229,8.41505608 L45.0000763,10.1576528 L45.0000763,8.93196035 L45.9999084,7.84855958 L46.6110229,8.41505608 Z M43.3334351,8.26666072 L43.3334351,8.2784865 L36.2857818,15.8954806 L33.8382721,13.6310204 L42.3282623,4.45568404 L44.7757721,6.72014423 L43.3433533,8.26666072 L43.3334351,8.26666072 Z M34.6851349,16.6836165 L32.7682495,17.2428649 L33.1775665,15.2877843 L34.6851349,16.6836165 Z M44.5926666,2.00925832 L47.039032,4.27257405 L45.9068299,5.49826651 L43.460083,3.23266186 L44.5926666,2.00925832 Z M4.16679385,4.16499698 L4.99992373,4.16499698 C6.38084414,4.16499698 7.50007627,5.28425674 7.50007627,6.66521123 L7.50007627,38.3543021 C6.78291318,37.8026833 5.90438848,37.5020777 4.99992373,37.4990259 L4.16679385,37.4990259 C3.26194766,37.5020777 2.3838043,37.8026833 1.66664121,38.3543021 L1.66664121,6.66521123 C1.66664121,5.28425674 2.78587344,4.16499698 4.16679385,4.16499698 Z M4.16679385,39.1657083 L4.99992373,39.1657083 C6.38084414,39.1657083 7.50007627,40.2853496 7.50007627,41.6659226 L1.66664121,41.6659226 C1.66664121,40.2853496 2.78587344,39.1657083 4.16679385,39.1657083 Z M19.8074341,43.5092298 L19.2741395,44.1493518 L16.7125702,42.0168834 L17.245102,41.3759985 C17.5395966,41.0223673 18.0648804,40.9743009 18.4185028,41.2688027 C18.4188843,41.2688027 18.4188843,41.2691843 18.4192657,41.2691843 L19.6998596,42.3327481 C20.0538635,42.6268685 20.1023102,43.1521653 19.8081971,43.506178 C19.8078155,43.5065594 19.8078155,43.5065594 19.8074341,43.5069409 L19.8074341,43.5092298 Z M16.0751343,47.9927542 L13.5131836,45.8602857 L15.6459809,43.2975089 L18.20755,45.4303587 L16.0751343,47.9927542 Z M21.2841034,41.6659226 C21.1456299,41.4351277 20.9705353,41.2287475 20.765686,41.0544115 L19.4850922,39.9885587 C18.4238434,39.1050531 16.8476104,39.2488708 15.9641266,40.3101457 L14.8334503,41.6659226 L9.16671758,41.6659226 L9.16671758,8.33189358 L36.4715576,8.33189358 L32.0491791,13.1110643 C31.9858551,13.1824009 31.9355011,13.2648004 31.9007873,13.353685 C31.8908691,13.3777182 31.8832397,13.4002255 31.8748475,13.4254031 C31.8668365,13.4501992 31.854248,13.4753769 31.8481445,13.5020804 L30.8532715,18.2587439 C30.7594299,18.7092707 31.048584,19.1506421 31.4990997,19.244486 C31.6329956,19.2723339 31.7714691,19.2669932 31.9023133,19.2288454 L36.5692139,17.8688721 C36.5909576,17.8620056 36.6092682,17.8494168 36.6298676,17.8421687 C36.6508484,17.8345391 36.6725922,17.8238577 36.6950988,17.8127948 C36.788559,17.7704506 36.8732452,17.7105583 36.9449615,17.6369328 L43.3334351,10.7325419 L43.3334351,36.5823315 L38.4918213,41.6659226 L21.2841034,41.6659226 Z M48.3333588,48.332652 L34.444046,48.332652 L48.3333588,33.7490859 L48.3333588,48.332652 Z" id="Shape"></path>
                <path d="M39.1577958,46.1266019 C39.2875951,46.4399831 39.5936603,46.6442953 39.9331352,46.6442953 L45.8052082,46.6442953 C46.2687222,46.6442953 46.6442953,46.2686988 46.6442953,45.8055398 L46.6442953,39.9327152 C46.6442953,39.4691723 46.2683382,39.0939597 45.8052082,39.0939597 C45.5828597,39.0939597 45.3693439,39.1822903 45.212279,39.3397489 L39.339822,45.2121895 C39.0998086,45.4522179 39.0279965,45.8132207 39.1577958,46.1266019 Z M44.9665052,41.9577875 L44.9665052,44.9664003 L41.9580807,44.9664003 L44.9665052,41.9577875 Z" id="Shape"></path>
                <path d="M36.5825961,31.5605073 L30.7495424,31.5605073 L30.7495424,22.4249861 C30.748398,22.2044867 30.6602785,21.9931112 30.5042574,21.8368608 L25.5043337,16.853953 C25.17894,16.5296667 24.6513673,16.5296667 24.3259737,16.853953 L19.32605,21.8368608 C19.1707919,21.9934915 19.0834353,22.2048668 19.0826723,22.4249861 L19.0826723,31.5605073 L13.2496187,31.5605073 C12.7891847,31.5605073 12.4161074,31.9323149 12.4161074,32.3908018 C12.4161074,32.8496688 12.7891847,33.2214765 13.2496187,33.2214765 L36.5829775,33.2214765 C37.04303,33.2214765 37.4161074,32.8496688 37.4161074,32.3908018 C37.4161074,31.9323149 37.04303,31.5605073 36.5825961,31.5605073 Z M24.9161074,18.6160479 L27.9045412,21.5943114 L21.9276736,21.5943114 L24.9161074,18.6160479 Z M20.7493135,23.2552806 L29.0829012,23.2552806 L29.0829012,31.5605073 L20.7493135,31.5605073 L20.7493135,23.2552806 Z" id="Shape"></path>
                <polygon id="Shape" points="24.1610738 13.2550336 25.8389262 13.2550336 25.8389262 14.9328859 24.1610738 14.9328859"></polygon>
                <polygon id="Shape" points="24.1610738 35.0671141 25.8389262 35.0671141 25.8389262 36.7449664 24.1610738 36.7449664"></polygon>
            </g>
        </g>
    </g>
</svg>