<?xml version="1.0" encoding="UTF-8"?>
<svg width="53px" height="50px" viewBox="0 0 53 50" version="1.1" xmlns="http://www.w3.org/2000/svg" xmlns:xlink="http://www.w3.org/1999/xlink">
    <!-- Generator: Sketch 51.3 (57544) - http://www.bohemiancoding.com/sketch -->
    <title>businessmen</title>
    <desc>Created with Sketch.</desc>
    <defs></defs>
    <g id="Page-1" stroke="none" stroke-width="1" fill="none" fill-rule="evenodd">
        <g id="Desktop-HD" transform="translate(-970.000000, -3405.000000)" fill="#000000" fill-rule="nonzero">
            <g id="businessmen" transform="translate(970.000000, 3405.000000)">
                <path d="M16.2529987,32.8344357 L15.1032434,32.8344357 C14.7682292,32.8344357 14.4737848,33.0588553 14.3821891,33.3840949 L13.0534248,38.108295 L12.2052242,36.5808079 L13.0199652,33.9573771 C13.0914851,33.7278955 13.0500789,33.4777436 12.9087121,33.2841186 C12.7677636,33.0900715 12.5431661,32.9757526 12.3047664,32.9757526 L9.39629098,32.9757526 C9.15789141,32.9757526 8.93371212,33.0900715 8.79234538,33.2841186 C8.65097854,33.4777436 8.60999048,33.7278955 8.68109217,33.9573771 L9.49959751,36.5930413 L8.79234538,37.9707748 L7.61080332,33.399703 C7.52506313,33.0668703 7.22685451,32.8344357 6.88598485,32.8344357 L5.58900729,32.8344357 C4.04610159,32.8344357 2.57429769,33.4903989 1.53537724,34.6411819 C0.496456782,35.7923866 -0.0133838384,37.3312635 0.130910642,38.8811082 L0.130910642,49.1883774 C0.130910642,49.6060002 0.466761364,49.944317 0.880405592,49.944317 L20.9607639,49.941786 C21.3744081,49.941786 21.7102588,49.6034692 21.7102588,49.1858464 L21.7102588,38.8811082 C21.8545533,37.3316853 21.345131,35.7923866 20.3062106,34.6416037 C19.2677083,33.4908207 17.7963227,32.8348576 16.2529987,32.8344357 Z M11.284667,34.4876316 L10.8505288,35.8843479 L10.4168087,34.4876316 L11.284667,34.4876316 Z M20.2150331,38.7680549 C20.2125237,38.7933652 20.2108507,38.8186758 20.2108507,38.8444081 L20.2108507,48.4303287 L1.62990054,48.4324379 L1.62990054,38.8444081 C1.62990054,38.8190976 1.62864589,38.7933652 1.62613636,38.7680549 C1.51279196,37.6379421 1.87917453,36.5124697 2.63410664,35.6700527 C3.38945707,34.8272138 4.46309188,34.3467366 5.58900729,34.3467366 L6.3062974,34.3467366 L7.83414618,40.2575762 C7.90901205,40.5456938 8.14448387,40.7629421 8.43558236,40.8122975 C8.72709906,40.8612311 9.01987063,40.7334132 9.18340433,40.4853705 C9.19887937,40.4625911 9.21268153,40.4385462 9.22522882,40.4140794 L10.7631156,37.4206938 L10.9529987,37.4206938 L12.6272333,40.4360151 C12.775292,40.7026188 13.0676452,40.8532161 13.3683633,40.8173596 C13.6694997,40.7815031 13.9191919,40.566786 14.0020045,40.2727625 L15.6691288,34.3463148 L16.2525805,34.3463148 C17.3784959,34.3467366 18.4517124,34.8276356 19.2066445,35.6704745 C19.9615767,36.5128915 20.327541,37.6383639 20.2141967,38.7680549 L20.2150331,38.7680549 Z" id="Shape"></path>
                <path d="M10.7614425,32.3345539 C13.6891571,32.3311792 16.0618608,29.9380737 16.0652068,26.9847631 L16.0652068,22.6929502 C16.0626973,20.3998212 14.2203283,18.5420323 11.947167,18.5390794 L7.07963229,18.5390794 C6.18416977,18.5403449 5.45851486,19.2722395 5.4572601,20.1754016 L5.4572601,26.9847631 C5.46060606,29.9380737 7.83330963,32.3311792 10.7614425,32.3345539 Z M10.7614425,30.8226748 C8.85550029,30.8201437 7.24483896,29.397695 6.99054603,27.4926599 C7.24483896,26.8822557 8.45482168,24.3119769 10.9015546,23.8939322 C11.5109374,24.0968379 12.1483429,24.2010326 12.7899306,24.2018763 C13.3917851,24.200189 13.9898753,24.1107586 14.5662169,23.93696 L14.5662169,26.9847631 C14.5637074,29.1032499 12.8618687,30.8201437 10.7614425,30.8226748 Z M8.60789928,22.6305177 C8.74926613,22.741462 8.89188763,22.8456567 9.03492735,22.9452112 C8.23398835,23.3729583 7.52715433,23.9593176 6.95625,24.6692765 L6.95625,20.9937737 C7.44643308,21.5978503 8.00018939,22.1466658 8.60789928,22.6305177 Z M14.5432134,22.3495714 C12.8330098,23.0021598 11.16003,22.7060272 9.56191609,21.4632829 C9.03450913,21.0469256 8.55436393,20.5736198 8.12984538,20.0509584 L11.9467487,20.0509584 C13.2608743,20.0530676 14.3708965,21.0355359 14.5432134,22.3495714 Z" id="Shape"></path>
                <path d="M36.6286379,24.3769405 L36.6286379,26.2140592 C36.6286379,29.1686352 39.0034328,31.5638499 41.9328204,31.5638499 C44.862208,31.5638499 47.2365846,29.1686352 47.2365846,26.2140592 L47.2365846,24.3769405 C47.2365846,21.4223644 44.862208,19.0271497 41.9328204,19.0271497 C39.0034328,19.0271497 36.6286379,21.4223644 36.6286379,24.3769405 Z M41.9328204,20.5390287 C44.0332465,20.5415598 45.7355035,22.2580319 45.7375947,24.3769405 L45.7375947,26.2140592 C45.7375947,28.3338114 44.034083,30.0519708 41.9328204,30.0519708 C39.8315578,30.0519708 38.1276278,28.3338114 38.1276278,26.2140592 L38.1276278,24.3769405 C38.1301373,22.2580319 39.8323942,20.5415598 41.9328204,20.5390287 Z" id="Shape"></path>
                <path d="M47.4247949,33.322506 L46.2746212,33.322506 C45.939607,33.322506 45.6451626,33.5469256 45.5535669,33.8721652 L44.2248027,38.5963654 L43.376602,37.0688782 L44.1917614,34.4454475 C44.2628631,34.2159659 44.2214568,33.965814 44.0805082,33.7721889 C43.9391414,33.5781419 43.7149621,33.4638229 43.4761442,33.4638229 L40.5685053,33.4638229 C40.3296874,33.4638229 40.1055082,33.5781419 39.9645596,33.7721889 C39.8231929,33.965814 39.7817866,34.2159659 39.8533065,34.4454475 L40.6718119,37.0815335 L39.9641414,38.4588451 L38.7825995,33.8881952 C38.6964409,33.5553624 38.3982323,33.3229279 38.0573627,33.3229279 L36.7608033,33.3229279 C35.2174795,33.3229279 33.7460937,33.978891 32.7071733,35.129674 C31.6686711,36.2808788 31.1588305,37.8197557 31.303125,39.3691786 L31.303125,48.4180952 C31.303125,48.8352963 31.6385575,49.1740348 32.0526199,49.1740348 L52.13256,49.1715038 C52.5466225,49.1715038 52.882055,48.833187 52.882055,48.4155643 L52.882055,39.3691786 C53.0263495,37.8197557 52.5169271,36.2808788 51.4780066,35.1300959 C50.4395045,33.978891 48.9681187,33.3229279 47.4252131,33.322506 L47.4247949,33.322506 Z M42.4560449,34.9757019 L42.0223248,36.3724184 L41.5881866,34.9757019 L42.4560449,34.9757019 Z M51.386411,39.2561252 C51.3839015,39.2814356 51.3826468,39.3071679 51.3826468,39.3324784 L51.3826468,47.6596247 L32.8016967,47.6617339 L32.8016967,39.3324784 C32.8016967,39.3071679 32.8000237,39.2814356 32.7975142,39.2561252 C32.6841698,38.1260124 33.0505525,37.00054 33.8059028,36.1577011 C34.5608349,35.3152841 35.6344697,34.8343851 36.7603851,34.8343851 L37.4780934,34.8343851 L39.0059422,40.7452247 C39.0816445,41.0388262 39.3233902,41.2577619 39.6207623,41.3024771 C39.9177162,41.3471922 40.2125789,41.2088283 40.369839,40.9506614 C40.3794586,40.9350533 40.3886601,40.9186015 40.397025,40.9021497 L41.9353298,37.9083423 L42.1252131,37.9083423 L43.7994475,40.9236636 C43.9470881,41.1902673 44.2398596,41.3408646 44.5405777,41.3054299 C44.8417141,41.2695734 45.0914063,41.0548563 45.1742187,40.7608328 L46.8413431,34.8343851 L47.4247949,34.8343851 C48.5507102,34.8343851 49.6239268,35.315706 50.3788589,36.158123 C51.133791,37.00054 51.4997553,38.1260124 51.386411,39.2561252 Z" id="Shape"></path>
                <path d="M25.0624921,4.78494536 L28.422672,4.78494536 C28.8367346,4.78494536 29.172167,4.4462068 29.172167,4.02900583 C29.172167,3.61138294 28.8367346,3.27306631 28.422672,3.27306631 L25.0624921,3.27306631 C24.6488479,3.27306631 24.3129972,3.61138294 24.3129972,4.02900583 C24.3129972,4.4462068 24.6488479,4.78494536 25.0624921,4.78494536 Z" id="Shape"></path>
                <path d="M35.4496055,10.0229482 C35.8636679,10.0229482 36.1991004,9.68420961 36.1991004,9.26700864 C36.1991004,8.84938575 35.8636679,8.51106911 35.4496055,8.51106911 L25.0624921,8.51106911 C24.6484296,8.51106911 24.3129972,8.84938575 24.3129972,9.26700864 C24.3129972,9.68420961 24.6484296,10.0229482 25.0624921,10.0229482 L35.4496055,10.0229482 Z" id="Shape"></path>
                <path d="M25.0624921,7.24976371 L35.4496055,7.24976371 C35.8636679,7.24976371 36.1991004,6.91144708 36.1991004,6.49382419 C36.1991004,6.0762014 35.8636679,5.73788467 35.4496055,5.73788467 L25.0624921,5.73788467 C24.6488479,5.73788467 24.3129972,6.0762014 24.3129972,6.49382419 C24.3129972,6.91144708 24.6488479,7.24976371 25.0624921,7.24976371 Z" id="Shape"></path>
                <path d="M15.6160117,19.2756143 C15.8661222,19.4051194 16.1668403,19.3827619 16.395202,19.2178219 L20.0795218,16.5551599 L32.3336806,16.5551599 C32.7473248,16.5551599 33.0831755,16.2168433 33.0831755,15.7992204 L33.0831755,13.4740314 L34.3228535,13.4740314 L38.0071733,16.1362716 C38.2355351,16.3016334 38.5362531,16.3239909 38.7859454,16.1944857 C39.0360558,16.0649805 39.1933159,15.8051262 39.1933159,15.5220707 L39.1933159,0.762688985 C39.1933159,0.345066091 38.8574652,0.00674946004 38.443821,0.00674946004 L22.0686947,0.00674946004 C21.6546323,0.00674946004 21.3191998,0.345066091 21.3191998,0.762688985 L21.3191998,3.08787797 L15.9585543,3.08787797 C15.5449101,3.08787797 15.2090593,3.42661652 15.2090593,3.84381749 L15.2090593,18.6031992 C15.2090593,18.8866766 15.3663194,19.146109 15.6160117,19.2756143 Z M22.8181897,1.51862851 L37.6939078,1.51862851 L37.6939078,14.0502666 L35.0004104,12.1034692 C34.8728457,12.0115078 34.7201863,11.9621524 34.5637626,11.9621524 L32.5160354,11.9621524 C32.3964172,11.9305143 32.2709439,11.9305143 32.1509075,11.9621524 L22.8181897,11.9621524 L22.8181897,1.51862851 Z M16.7080492,4.59975702 L21.3191998,4.59975702 L21.3191998,12.7185138 C21.3191998,13.1361366 21.6546323,13.4744533 22.0686947,13.4744533 L31.5841856,13.4744533 L31.5841856,15.0441246 L19.8381944,15.0441246 C19.6817708,15.0441246 19.5291114,15.09348 19.4019649,15.1854415 L16.7080492,17.1313951 L16.7080492,4.59975702 Z" id="Shape"></path>
            </g>
        </g>
    </g>
</svg>