<?xml version="1.0" encoding="UTF-8"?>
<svg width="50px" height="50px" viewBox="0 0 50 50" version="1.1" xmlns="http://www.w3.org/2000/svg" xmlns:xlink="http://www.w3.org/1999/xlink">
    <!-- Generator: Sketch 51.3 (57544) - http://www.bohemiancoding.com/sketch -->
    <title>ballot</title>
    <desc>Created with Sketch.</desc>
    <defs></defs>
    <g id="Page-1" stroke="none" stroke-width="1" fill="none" fill-rule="evenodd">
        <g id="Desktop-HD" transform="translate(-490.000000, -3405.000000)" fill="#000000" fill-rule="nonzero">
            <g id="ballot" transform="translate(490.000000, 3405.000000)">
                <path d="M49.0234375,11.8200195 C49.2802734,11.8200195 49.5322266,11.7155273 49.7137695,11.5338867 C49.8954102,11.3522461 50,11.100293 50,10.843457 C50,10.5866211 49.8955078,10.334668 49.7137695,10.1530273 C49.5322266,9.97138672 49.2802734,9.86689453 49.0234375,9.86689453 C48.7666016,9.86689453 48.5146484,9.97138672 48.3330078,10.1530273 C48.1513672,10.334668 48.046875,10.5866211 48.046875,10.843457 C48.046875,11.100293 48.1512695,11.3522461 48.3330078,11.5338867 C48.5146484,11.7155273 48.7666016,11.8200195 49.0234375,11.8200195 Z" id="XMLID_600_"></path>
                <path d="M6.16445312,19.193457 C6.21982422,19.2780273 6.28818359,19.353418 6.36679688,19.4169922 L9.11054688,21.6358398 L14.2462891,35.2513672 C14.3376953,35.4936523 14.521582,35.6897461 14.7576172,35.7964844 C14.8852539,35.8542969 15.0225586,35.8833008 15.1599609,35.8833008 C15.2765625,35.8833008 15.393457,35.8624023 15.5045898,35.8204102 L28.5771484,30.8893555 C29.0817383,30.6990234 29.3365234,30.1355469 29.1461914,29.630957 L23.8783203,15.6652344 C23.6879883,15.1606445 23.1248047,14.9055664 22.6199219,15.0961914 L20.3417969,15.9554688 L19.8970703,13.9044922 C19.5231445,12.1800781 18.5085937,10.6914062 17.0405273,9.71269531 L12.4248047,6.63554687 L10.4003906,3.68867187 L8.29921875,0.446875 C8.00585938,-0.0056640625 7.40107422,-0.134960938 6.94863281,0.158496094 C6.49599609,0.451855469 6.36689453,1.05654297 6.66025391,1.50917969 L8.22412109,3.92207031 L0.47109375,8.68408203 C0.245996094,8.82226562 0.0865234375,9.04570312 0.0291015625,9.30341797 C-0.0283203125,9.56113281 0.0208984375,9.83115234 0.165722656,10.0519531 L6.16445312,19.193457 Z M26.9742188,29.4066406 L15.7291016,33.6484375 L12.1142578,24.0650391 L13.5839844,25.2536133 C14.1683594,25.7261719 14.8763672,25.959668 15.5826172,25.9595703 C16.3827148,25.9595703 17.1806641,25.6597656 17.7931641,25.0680664 C18.9360352,23.9640625 19.0855469,22.1680664 18.1410156,20.890332 L16.975,19.3129883 L22.3958008,17.2682617 L26.9742188,29.4066406 Z M17.9884766,14.318457 L18.4945312,16.6523438 L15.7681641,17.6807617 L14.068457,15.3816406 C13.7479492,14.9479492 13.1364258,14.8564453 12.7027344,15.1768555 C12.269043,15.4974609 12.1773437,16.1089844 12.4979492,16.5426758 L16.5703125,22.0514648 C16.934668,22.5444336 16.8770508,23.2374023 16.4361328,23.6633789 C15.9911133,24.0931641 15.2929687,24.1238281 14.8120117,23.7349609 L7.71357422,17.9944336 L4.41162109,12.9625 L11.7040039,8.50234375 L15.9572266,11.3378906 C17.0011719,12.0337891 17.7225586,13.0922852 17.9884766,14.318457 Z M9.30830078,5.54824219 L10.3385742,7.04794922 L3.33955078,11.3287109 L2.35068359,9.82167969 L9.30830078,5.54824219 Z" id="XMLID_1074_"></path>
                <path d="M49.0234375,48.0456055 L38.9335938,48.0456055 L40.8950195,42.8457031 L43.6387695,40.6268555 C43.7174805,40.5632812 43.7857422,40.4878906 43.8411133,40.4033203 L49.8398438,31.2618164 C49.984668,31.0410156 50.0339844,30.7709961 49.9764648,30.5132812 C49.9189453,30.2555664 49.7594727,30.0321289 49.5344727,29.8938477 L41.7459961,25.1101562 L47.8745117,14.7149414 C48.1484375,14.2503906 47.9938477,13.6516602 47.5292969,13.3777344 C47.0642578,13.1037109 46.465918,13.2583984 46.1920898,13.7230469 L39.5936523,24.9152344 L37.5805664,27.8454102 L33.0642578,30.8563477 C31.5320313,31.8777344 30.4733398,33.4313477 30.0832031,35.2310547 L29.6637695,37.165332 L27.3856445,36.3060547 C27.143457,36.2145508 26.8746094,36.2231445 26.6386719,36.3299805 C26.4026367,36.4367187 26.2186523,36.6328125 26.1273438,36.8750977 L21.9137695,48.0457031 L4.88330078,48.0457031 C4.34404297,48.0457031 3.90673828,48.4830078 3.90673828,49.0222656 C3.90673828,49.5615234 4.34404297,49.9988281 4.88330078,49.9988281 L49.0234375,49.9988281 C49.5626953,49.9988281 50,49.5615234 50,49.0222656 C50,48.4830078 49.5626953,48.0456055 49.0234375,48.0456055 Z M46.6660156,32.5383789 L39.6669922,28.2576172 L40.697168,26.7581055 L47.6548828,31.0314453 L46.6660156,32.5383789 Z M31.9919922,35.6449219 C32.2741211,34.3435547 33.0397461,33.2200195 34.1476563,32.4813477 L38.3015625,29.7120117 L45.5939453,34.172168 L42.2919922,39.2041016 L35.1935547,44.9446289 C34.7125,45.3333984 34.0143555,45.3029297 33.5694336,44.8730469 C33.1285156,44.447168 33.0708984,43.7541992 33.4352539,43.2611328 L37.5075195,37.7524414 C37.828125,37.31875 37.7365234,36.7073242 37.3027344,36.3867188 C36.8692383,36.0662109 36.2576172,36.1577148 35.9370117,36.5915039 L34.2374023,38.890625 L31.5110352,37.862207 L31.9919922,35.6449219 Z M24.0010742,48.0456055 L27.6099609,38.4780273 L33.0306641,40.5227539 L31.8646484,42.1000977 C30.9200195,43.377832 31.0695313,45.1739258 32.2124023,46.2777344 C32.825,46.8695313 33.6227539,47.1694336 34.4230469,47.1693359 C35.1291992,47.1693359 35.8373047,46.9357422 36.4216797,46.4632812 L37.8913086,45.2748047 L36.8460938,48.0457031 L24.0010742,48.0457031 L24.0010742,48.0456055 Z" id="XMLID_1126_"></path>
                <path d="M0.9765625,48.0456055 C0.437304687,48.0456055 0,48.4829102 0,49.022168 C0,49.5614258 0.437304687,49.9987305 0.9765625,49.9987305 L0.977050781,49.9987305 C1.51630859,49.9987305 1.95341797,49.5614258 1.95341797,49.022168 C1.95341797,48.4829102 1.51582031,48.0456055 0.9765625,48.0456055 Z" id="XMLID_1135_"></path>
            </g>
        </g>
    </g>
</svg>