<?xml version="1.0" encoding="UTF-8"?>
<svg width="39px" height="50px" viewBox="0 0 39 50" version="1.1" xmlns="http://www.w3.org/2000/svg" xmlns:xlink="http://www.w3.org/1999/xlink">
    <!-- Generator: Sketch 51.3 (57544) - http://www.bohemiancoding.com/sketch -->
    <title>prototype</title>
    <desc>Created with Sketch.</desc>
    <defs></defs>
    <g id="Page-1" stroke="none" stroke-width="1" fill="none" fill-rule="evenodd">
        <g id="Desktop-HD" transform="translate(-730.000000, -3405.000000)" fill="#000000" fill-rule="nonzero">
            <g id="prototype" transform="translate(730.000000, 3405.000000)">
                <path d="M37.375,29.1807113 L37.375,24.0443076 C38.3184204,23.7103862 39,22.8232107 39,21.773406 C39,20.4396894 37.9062195,19.3540512 36.5625,19.3540512 C36.235199,19.3540512 35.9237671,19.4202054 35.6377258,19.5371567 L33.2970276,16.632277 C33.1387329,14.1066028 31.0229797,12.0967742 28.4375,12.0967742 C27.804718,12.0967742 27.1945496,12.2208134 26.6288147,12.4444777 L27.3195191,10.0452054 C27.5226441,9.34034778 27.625,8.61225746 27.625,7.87983558 C27.625,3.53531371 24.0639648,-2.84217094e-14 19.6860656,-2.84217094e-14 L19.3147278,-2.84217094e-14 C14.9360352,-2.84217094e-14 11.375,3.53531371 11.375,7.87983558 C11.375,8.61146986 11.4773559,9.34034778 11.6804809,10.0452054 L12.3711853,12.4444777 C11.8054504,12.2208134 11.195282,12.0967742 10.5625,12.0967742 C7.97702029,12.0967742 5.86126714,14.1066028 5.70297244,16.6330645 L3.3622742,19.5379442 C3.07623286,19.4209929 2.764801,19.3548387 2.4375,19.3548387 C1.09378049,19.3548387 5.68434189e-14,20.4404769 5.68434189e-14,21.7741935 C5.68434189e-14,22.8239982 0.681579641,23.7111738 1.625,24.0450952 L1.625,29.1814989 C0.681579641,29.5146327 5.68434189e-14,30.4018083 5.68434189e-14,31.4516129 L5.68434189e-14,33.8709677 L1.625,33.8709677 L1.625,31.4516129 C1.625,31.006647 1.98999023,30.6451613 2.4375,30.6451613 C2.88500977,30.6451613 3.25,31.006647 3.25,31.4516129 L3.25,33.8709677 L4.875,33.8709677 L4.875,31.4516129 C4.875,30.4018083 4.19342036,29.5146327 3.25,29.1807113 L3.25,24.0443076 C4.19342036,23.7103862 4.875,22.8232107 4.875,21.773406 C4.875,21.354823 4.75796506,20.9661668 4.56793208,20.6224011 L6.05645747,18.7767767 C6.78762815,20.5338016 8.53125,21.7741935 10.5625,21.7741935 L14.0124512,21.7741935 L14.7087097,24.1935484 L13,24.1935484 C10.7600708,24.1935484 8.9375,26.0025516 8.9375,28.2258065 L8.9375,35.483871 L11.375,35.483871 L11.375,45.1612903 L11.3960266,45.1612903 C10.8802795,45.8370086 10.5625,46.6694494 10.5625,47.5806452 L10.5625,50 L18.6875,50 L18.6875,47.5806452 C18.6875,46.6694494 18.3697205,45.8370086 17.8539734,45.1612903 L17.875,45.1612903 L17.875,35.483871 L21.125,35.483871 L21.125,45.1612903 L21.1460266,45.1612903 C20.6302795,45.8370086 20.3125,46.6694494 20.3125,47.5806452 L20.3125,50 L28.4375,50 L28.4375,47.5806452 C28.4375,46.6694494 28.1197205,45.8370086 27.6039734,45.1612903 L27.625,45.1612903 L27.625,35.483871 L30.0625,35.483871 L30.0625,28.2258065 C30.0625,26.0025516 28.2399293,24.1935484 26,24.1935484 L24.2912903,24.1935484 L24.9875488,21.7741935 L28.4375,21.7741935 C30.46875,21.7741935 32.2123719,20.5338016 32.9435425,18.7775643 L34.4320679,20.6235825 C34.2428283,20.9669544 34.125,21.3556105 34.125,21.7741935 C34.125,22.8239982 34.8065796,23.7111738 35.75,24.0450952 L35.75,29.1814989 C34.8065796,29.5154203 34.125,30.4025958 34.125,31.4524004 L34.125,33.8717552 L35.75,33.8717552 L35.75,31.4524004 C35.75,31.0074345 36.1149902,30.6459488 36.5625,30.6459488 C37.0100098,30.6459488 37.375,31.0074345 37.375,31.4524004 L37.375,33.8717552 L39,33.8717552 L39,31.4524004 C39,30.4018083 38.3184204,29.5146327 37.375,29.1807113 Z M37.375,21.7741935 C37.375,22.2191595 37.0100098,22.5806452 36.5625,22.5806452 C36.1149902,22.5806452 35.75,22.2191595 35.75,21.7741935 C35.75,21.3292276 36.1149902,20.9677419 36.5625,20.9677419 C37.0100098,20.9677419 37.375,21.3292276 37.375,21.7741935 Z M14.4250488,13.7096774 L13.4828186,10.4354366 C14.8582764,10.9170237 16.8633422,11.2903226 19.5,11.2903226 C22.1691895,11.2903226 24.1548156,10.9272619 25.5116272,10.4547317 L24.5749512,13.7096774 L14.4250488,13.7096774 Z M26,7.87983558 C26,8.08853639 25.9773865,8.29684355 25.9559631,8.50475685 C25.210907,8.95562944 23.2336121,9.67741935 19.5,9.67741935 C16.171051,9.67741935 13.9684143,9.02965917 13.0432434,8.488612 C13.0226135,8.28621159 13,8.08381109 13,7.87983558 C13,7.15647056 13.130127,6.46460746 13.3582459,5.81763488 C14.2814332,6.08382681 16.1599426,6.4516129 19.5,6.4516129 C22.8400574,6.4516129 24.7185668,6.08382681 25.6417541,5.81842238 C25.869873,6.46539506 26,7.15725806 26,7.87983558 Z M19.3139344,1.61290323 L19.6852722,1.61290323 C21.8458557,1.61290323 23.7549133,2.69696633 24.8943176,4.34452177 C24.0254822,4.55637288 22.3381958,4.83870968 19.5,4.83870968 C16.6618043,4.83870968 14.9753113,4.55637288 14.1056824,4.34452177 C15.2450867,2.69696633 17.1533508,1.61290323 19.3139344,1.61290323 Z M2.4375,22.5806452 C1.98999023,22.5806452 1.625,22.2191595 1.625,21.7741935 C1.625,21.3292276 1.98999023,20.9677419 2.4375,20.9677419 C2.88500977,20.9677419 3.25,21.3292276 3.25,21.7741935 C3.25,22.2191595 2.88500977,22.5806452 2.4375,22.5806452 Z M13,41.9354839 L16.25,41.9354839 L16.25,43.890184 C15.7513123,43.6724263 15.2034301,43.5483871 14.625,43.5483871 C14.0465699,43.5483871 13.4986877,43.6724263 13,43.890184 L13,41.9354839 Z M16.25,40.3225806 L13,40.3225806 L13,38.7096774 L16.25,38.7096774 L16.25,40.3225806 Z M17.0625,48.3870968 L12.1875,48.3870968 L12.1875,47.5806452 C12.1875,46.2469285 13.2812805,45.1612903 14.625,45.1612903 C15.9687195,45.1612903 17.0625,46.2469285 17.0625,47.5806452 L17.0625,48.3870968 Z M16.25,37.0967742 L13,37.0967742 L13,35.483871 L16.25,35.483871 L16.25,37.0967742 Z M22.75,41.9354839 L26,41.9354839 L26,43.890184 C25.5013123,43.6724263 24.9534301,43.5483871 24.375,43.5483871 C23.7965699,43.5483871 23.2486877,43.6724263 22.75,43.890184 L22.75,41.9354839 Z M26,40.3225806 L22.75,40.3225806 L22.75,38.7096774 L26,38.7096774 L26,40.3225806 Z M26.8125,48.3870968 L21.9375,48.3870968 L21.9375,47.5806452 C21.9375,46.2469285 23.0312805,45.1612903 24.375,45.1612903 C25.7187195,45.1612903 26.8125,46.2469285 26.8125,47.5806452 L26.8125,48.3870968 Z M26,37.0967742 L22.75,37.0967742 L22.75,35.483871 L26,35.483871 L26,37.0967742 Z M26,25.8064516 C27.3437195,25.8064516 28.4375,26.8920898 28.4375,28.2258065 L28.4375,33.8709677 L10.5625,33.8709677 L10.5625,28.2258065 C10.5625,26.8920898 11.6562805,25.8064516 13,25.8064516 L15.1724854,25.8064516 L16.6471252,30.9290732 C17.0097351,32.1863974 18.1820679,33.0645161 19.5,33.0645161 C20.8179321,33.0645161 21.9902649,32.1863974 22.3528748,30.9290732 L23.8275146,25.8064516 L26,25.8064516 Z M20.7901611,30.4864699 C20.6263123,31.0546875 20.0954895,31.4516129 19.5,31.4516129 C18.9045105,31.4516129 18.3736877,31.0546875 18.2098389,30.4864699 L15.7025146,21.7741935 L23.2982789,21.7741935 L20.7901611,30.4864699 Z M28.4375,20.1612903 L10.5625,20.1612903 C8.77008052,20.1612903 7.3125,18.7145603 7.3125,16.9354839 C7.3125,15.1564075 8.77008052,13.7096774 10.5625,13.7096774 C10.8648071,13.7096774 11.1556092,13.761262 11.4368896,13.8396232 C10.4617309,14.1558247 9.75,15.0563886 9.75,16.1290323 L9.75,18.5483871 L11.375,18.5483871 L11.375,16.1290323 C11.375,15.6840663 11.7399902,15.3225806 12.1875,15.3225806 L26.8125,15.3225806 C27.2600098,15.3225806 27.625,15.6840663 27.625,16.1290323 L27.625,18.5483871 L29.25,18.5483871 L29.25,16.1290323 C29.25,15.0563886 28.5382691,14.1558247 27.5631104,13.8396232 C27.8443908,13.761262 28.1351929,13.7096774 28.4375,13.7096774 C30.2299195,13.7096774 31.6875,15.1564075 31.6875,16.9354839 C31.6875,18.7145603 30.2299195,20.1612903 28.4375,20.1612903 Z" id="Shape"></path>
                <polygon id="Shape" points="24.375 16.9354839 26 16.9354839 26 18.5483871 24.375 18.5483871"></polygon>
                <polygon id="Shape" points="21.125 16.9354839 22.75 16.9354839 22.75 18.5483871 21.125 18.5483871"></polygon>
            </g>
        </g>
    </g>
</svg>